<svg width="62" height="62" viewBox="0 0 62 62" fill="none" xmlns="http://www.w3.org/2000/svg">
<circle cx="31" cy="31" r="31" fill="url(#paint0_linear_204_14)"/>
<path d="M29.8339 42.129C31.0208 39.2734 28.5617 36.8764 26.9114 37.7742C26.9114 37.7742 24.51 40.3361 22.3653 40.8387C18.616 40.5486 17.2318 39.0757 16.3579 36.1613C16.3216 31.7886 18.3639 29.9959 21.8782 30.0323C23.6642 30.1936 24.9507 30.537 26.4243 32.4516C26.4243 32.4516 32.5 41.0001 33.7306 42.129C34.9612 43.258 38 39.5001 36.4907 37.7742C31.6016 30.8089 28.5675 26.4088 27.5609 26C25.6125 24.871 24.4623 24.4991 22.3653 24.3871C19.6818 24.4515 18.2202 24.8093 15.7085 26C15.7085 26 16 17.5003 15.7085 16.0001C15.417 14.4999 11.5 14.5001 11 16.0001V46C13.0216 47.2112 14.0345 47.0736 15.7085 46V44.2258C18.0425 45.5767 19.4855 46.0063 22.3653 46C26.1398 45.8588 27.7881 45.0313 29.8339 42.129Z" fill="white"/>
<path d="M38.7641 27.9355C36 28 35.3548 28.6853 35.3545 31.1613C35.3542 33.6374 43.4726 41.8064 43.4726 41.8064L55.0002 25.6775C52.8112 23.9136 51.5683 23.532 49.3176 25.6775L43.4726 33.9032L38.7641 27.9355Z" fill="white"/>
<defs>
<linearGradient id="paint0_linear_204_14" x1="-5" y1="-3" x2="52.5" y2="58" gradientUnits="userSpaceOnUse">
<stop stop-color="#7BEEDB"/>
<stop offset="0.528507" stop-color="#376B63"/>
<stop offset="1"/>
</linearGradient>
</defs>
</svg>
